<mxfile host="app.diagrams.net" modified="2023-10-25T16:10:05.309Z" agent="Mozilla/5.0 (Windows NT 10.0; Win64; x64) AppleWebKit/537.36 (KHTML, like Gecko) Chrome/118.0.0.0 Safari/537.36" etag="pWETFG996VNcie-E_Kce" version="22.0.8" type="google">
  <diagram name="Page-1" id="d66fe2ae-3e9f-cf2f-6d29-e24063ad5d60">
    <mxGraphModel grid="1" page="1" gridSize="10" guides="1" tooltips="1" connect="1" arrows="1" fold="1" pageScale="1" pageWidth="1100" pageHeight="850" background="none" math="0" shadow="0">
      <root>
        <mxCell id="0" />
        <mxCell id="1" parent="0" />
        <mxCell id="zyGmsiRM6Q_g-jnoe3jO-12" value="" style="rounded=1;whiteSpace=wrap;html=1;fontSize=16;" vertex="1" parent="1">
          <mxGeometry x="-740" y="610" width="120" height="60" as="geometry" />
        </mxCell>
        <mxCell id="zyGmsiRM6Q_g-jnoe3jO-11" value="" style="rounded=1;whiteSpace=wrap;html=1;fontSize=16;" vertex="1" parent="1">
          <mxGeometry x="-735" y="300" width="120" height="60" as="geometry" />
        </mxCell>
        <mxCell id="zyGmsiRM6Q_g-jnoe3jO-1" value="" style="html=1;outlineConnect=0;fillColor=#CCCCCC;strokeColor=#6881B3;gradientColor=none;gradientDirection=north;strokeWidth=2;shape=mxgraph.networks.cloud;fontColor=#ffffff;fontSize=16;" vertex="1" parent="1">
          <mxGeometry x="-850" y="460" width="90" height="50" as="geometry" />
        </mxCell>
        <mxCell id="zyGmsiRM6Q_g-jnoe3jO-2" value="CHR" style="fontColor=#0066CC;verticalAlign=top;verticalLabelPosition=bottom;labelPosition=center;align=center;html=1;outlineConnect=0;fillColor=#CCCCCC;strokeColor=#6881B3;gradientColor=none;gradientDirection=north;strokeWidth=2;shape=mxgraph.networks.switch;fontSize=16;" vertex="1" parent="1">
          <mxGeometry x="-855" y="320" width="100" height="30" as="geometry" />
        </mxCell>
        <mxCell id="zyGmsiRM6Q_g-jnoe3jO-5" value="" style="fontColor=#0066CC;verticalAlign=top;verticalLabelPosition=bottom;labelPosition=center;align=center;html=1;outlineConnect=0;fillColor=#CCCCCC;strokeColor=#6881B3;gradientColor=none;gradientDirection=north;strokeWidth=2;shape=mxgraph.networks.terminal;fontSize=16;" vertex="1" parent="1">
          <mxGeometry x="-845" y="610" width="80" height="65" as="geometry" />
        </mxCell>
        <mxCell id="zyGmsiRM6Q_g-jnoe3jO-6" value="" style="endArrow=classic;html=1;rounded=0;fontSize=12;startSize=8;endSize=8;curved=1;exitX=0.5;exitY=1;exitDx=0;exitDy=0;exitPerimeter=0;entryX=0.5;entryY=0.08;entryDx=0;entryDy=0;entryPerimeter=0;" edge="1" parent="1" source="zyGmsiRM6Q_g-jnoe3jO-2" target="zyGmsiRM6Q_g-jnoe3jO-1">
          <mxGeometry width="50" height="50" relative="1" as="geometry">
            <mxPoint x="-670" y="610" as="sourcePoint" />
            <mxPoint x="-620" y="560" as="targetPoint" />
          </mxGeometry>
        </mxCell>
        <mxCell id="zyGmsiRM6Q_g-jnoe3jO-7" value="" style="endArrow=classic;html=1;rounded=0;fontSize=12;startSize=8;endSize=8;curved=1;exitX=0.5;exitY=0;exitDx=0;exitDy=0;exitPerimeter=0;" edge="1" parent="1" source="zyGmsiRM6Q_g-jnoe3jO-5" target="zyGmsiRM6Q_g-jnoe3jO-1">
          <mxGeometry width="50" height="50" relative="1" as="geometry">
            <mxPoint x="-670" y="610" as="sourcePoint" />
            <mxPoint x="-620" y="560" as="targetPoint" />
          </mxGeometry>
        </mxCell>
        <mxCell id="zyGmsiRM6Q_g-jnoe3jO-8" value="" style="endArrow=classic;html=1;rounded=0;fontSize=12;startSize=8;endSize=8;curved=1;entryX=0;entryY=0.5;entryDx=0;entryDy=0;entryPerimeter=0;exitX=0;exitY=0.5;exitDx=0;exitDy=0;exitPerimeter=0;" edge="1" parent="1" source="zyGmsiRM6Q_g-jnoe3jO-5" target="zyGmsiRM6Q_g-jnoe3jO-2">
          <mxGeometry width="50" height="50" relative="1" as="geometry">
            <mxPoint x="-930" y="600" as="sourcePoint" />
            <mxPoint x="-620" y="560" as="targetPoint" />
            <Array as="points">
              <mxPoint x="-930" y="540" />
              <mxPoint x="-900" y="390" />
            </Array>
          </mxGeometry>
        </mxCell>
        <mxCell id="zyGmsiRM6Q_g-jnoe3jO-9" value="&lt;br&gt;VPN Client&amp;nbsp;&lt;br&gt;на CHR" style="text;html=1;strokeColor=none;fillColor=none;align=center;verticalAlign=middle;whiteSpace=wrap;rounded=0;fontSize=16;" vertex="1" parent="1">
          <mxGeometry x="-735" y="310" width="120" height="30" as="geometry" />
        </mxCell>
        <mxCell id="zyGmsiRM6Q_g-jnoe3jO-10" value="VPN Server&lt;br&gt;на Ubuntu" style="text;html=1;strokeColor=none;fillColor=none;align=center;verticalAlign=middle;whiteSpace=wrap;rounded=0;fontSize=16;" vertex="1" parent="1">
          <mxGeometry x="-725" y="625" width="90" height="30" as="geometry" />
        </mxCell>
        <mxCell id="zyGmsiRM6Q_g-jnoe3jO-13" value="&amp;nbsp;Internet" style="text;html=1;strokeColor=none;fillColor=none;align=center;verticalAlign=middle;whiteSpace=wrap;rounded=0;fontSize=16;" vertex="1" parent="1">
          <mxGeometry x="-835" y="480" width="60" height="30" as="geometry" />
        </mxCell>
        <mxCell id="zyGmsiRM6Q_g-jnoe3jO-14" value="VPN туннель" style="text;html=1;strokeColor=none;fillColor=none;align=center;verticalAlign=middle;whiteSpace=wrap;rounded=0;fontSize=16;" vertex="1" parent="1">
          <mxGeometry x="-980" y="490" width="60" height="30" as="geometry" />
        </mxCell>
        <mxCell id="zyGmsiRM6Q_g-jnoe3jO-15" style="edgeStyle=none;curved=1;rounded=0;orthogonalLoop=1;jettySize=auto;html=1;exitX=0.5;exitY=0;exitDx=0;exitDy=0;fontSize=12;startSize=8;endSize=8;" edge="1" parent="1" source="zyGmsiRM6Q_g-jnoe3jO-9" target="zyGmsiRM6Q_g-jnoe3jO-9">
          <mxGeometry relative="1" as="geometry" />
        </mxCell>
      </root>
    </mxGraphModel>
  </diagram>
</mxfile>
